<?xml version="1.0" encoding="utf-8"?>
<svg width="327.00082px" height="235px" viewBox="0 0 327.00082 235" version="1.1" xmlns:xlink="http://www.w3.org/1999/xlink" xmlns="http://www.w3.org/2000/svg">
  <defs>
    <linearGradient gradientUnits="objectBoundingBox" x1="1" y1="0.14197531" x2="0" y2="0.7407407" id="gradient_1">
      <stop offset="6.44555%" stop-color="#FFFFFF" stop-opacity="0.70980394" />
      <stop offset="57.8125%" stop-color="#59ADFF" />
      <stop offset="100%" stop-color="#59ADFF" />
    </linearGradient>
    <filter filterUnits="userSpaceOnUse" color-interpolation-filters="sRGB" id="filter_1">
      <feFlood flood-opacity="0" result="BackgroundImageFix" />
      <feBlend mode="normal" in="SourceGraphic" in2="BackgroundImageFix" result="shape" />
      <feGaussianBlur stdDeviation="1" result="effect0_gaussianBlur" />
    </filter>
  </defs>
  <g id="Group">
    <path d="M218 0C222.299 0 225.782 3.48366 225.782 7.78228L225.782 35.6708C225.782 39.9695 222.299 43.4531 218 43.4531C213.701 43.4531 210.218 39.9695 210.218 35.6708L210.218 7.78228C210.218 3.48366 213.701 0 218 0ZM291.936 26.9598L291.934 26.9585Q291.799 26.8235 291.658 26.6952Q291.516 26.567 291.368 26.4458Q291.221 26.3246 291.067 26.2109Q290.914 26.0971 290.755 25.991Q290.596 25.8849 290.432 25.7867Q290.268 25.6885 290.1 25.5985Q289.931 25.5085 289.758 25.4268Q289.586 25.3452 289.409 25.2721Q289.233 25.199 289.053 25.1346Q288.873 25.0703 288.69 25.0149Q288.507 24.9594 288.322 24.913Q288.137 24.8666 287.949 24.8294Q287.762 24.7921 287.573 24.7641Q287.384 24.7361 287.194 24.7173Q287.004 24.6986 286.813 24.6893Q286.622 24.6799 286.431 24.6799Q286.24 24.6799 286.049 24.6893Q285.858 24.6986 285.668 24.7173Q285.478 24.7361 285.289 24.7641Q285.1 24.7921 284.913 24.8294Q284.725 24.8666 284.54 24.913Q284.355 24.9594 284.172 25.0149Q283.989 25.0703 283.809 25.1346Q283.629 25.199 283.453 25.2721Q283.276 25.3452 283.104 25.4268Q282.931 25.5085 282.762 25.5985Q282.594 25.6885 282.43 25.7867Q282.266 25.8849 282.107 25.991Q281.948 26.0971 281.795 26.2109Q281.641 26.3246 281.494 26.4458Q281.346 26.567 281.204 26.6952Q281.063 26.8235 280.928 26.9585L261.191 46.6833Q260.921 46.9534 260.679 47.2486Q260.436 47.5439 260.224 47.8615Q260.012 48.1791 259.832 48.516Q259.651 48.8528 259.505 49.2058Q259.359 49.5587 259.248 49.9243Q259.137 50.2898 259.063 50.6645Q258.988 51.0392 258.95 51.4194Q258.913 51.7995 258.913 52.1816Q258.913 52.5636 258.95 52.9438Q258.988 53.324 259.063 53.6986Q259.137 54.0733 259.248 54.4389Q259.359 54.8044 259.505 55.1574Q259.651 55.5103 259.832 55.8472Q260.012 56.1841 260.224 56.5017Q260.436 56.8193 260.679 57.1145Q260.921 57.4098 261.191 57.6798L261.193 57.6811Q261.328 57.8161 261.469 57.9444Q261.611 58.0726 261.759 58.1938Q261.906 58.315 262.06 58.4287Q262.213 58.5425 262.372 58.6486Q262.531 58.7547 262.695 58.8529Q262.859 58.9511 263.027 59.0411Q263.196 59.1311 263.369 59.2128Q263.541 59.2944 263.718 59.3675Q263.894 59.4406 264.074 59.5049Q264.254 59.5693 264.437 59.6247Q264.62 59.6802 264.805 59.7266Q264.99 59.773 265.178 59.8102Q265.365 59.8475 265.554 59.8755Q265.743 59.9035 265.933 59.9222Q266.123 59.941 266.314 59.9503Q266.505 59.9597 266.696 59.9597Q266.887 59.9597 267.078 59.9503Q267.269 59.941 267.459 59.9222Q267.649 59.9035 267.838 59.8755Q268.027 59.8475 268.214 59.8102Q268.402 59.773 268.587 59.7266Q268.772 59.6802 268.955 59.6247Q269.138 59.5693 269.318 59.5049Q269.498 59.4406 269.674 59.3675Q269.851 59.2944 270.023 59.2128Q270.196 59.1311 270.365 59.0411Q270.533 58.9511 270.697 58.8529Q270.861 58.7547 271.02 58.6486Q271.179 58.5425 271.332 58.4287Q271.486 58.315 271.633 58.1938Q271.781 58.0726 271.923 57.9444Q272.064 57.8161 272.199 57.6811L291.936 37.9562Q292.206 37.6862 292.448 37.3909Q292.691 37.0957 292.903 36.7781Q293.115 36.4605 293.295 36.1236Q293.476 35.7867 293.622 35.4338Q293.768 35.0809 293.879 34.7153Q293.99 34.3498 294.064 33.9751Q294.139 33.6004 294.176 33.2202Q294.214 32.84 294.214 32.458Q294.214 32.076 294.176 31.6958Q294.139 31.3156 294.064 30.9409Q293.99 30.5663 293.879 30.2007Q293.768 29.8351 293.622 29.4822Q293.476 29.1293 293.295 28.7924Q293.115 28.4555 292.903 28.1379Q292.691 27.8203 292.448 27.5251Q292.206 27.2298 291.936 26.9598ZM144.875 29.3693L144.874 29.3706Q144.603 29.6406 144.361 29.9359Q144.118 30.2311 143.906 30.5487Q143.694 30.8663 143.514 31.2032Q143.334 31.5401 143.187 31.893Q143.041 32.2459 142.93 32.6115Q142.819 32.9771 142.745 33.3517Q142.67 33.7264 142.633 34.1066Q142.595 34.4868 142.595 34.8688Q142.595 35.2508 142.633 35.631Q142.67 36.0112 142.745 36.3859Q142.819 36.7606 142.93 37.1261Q143.041 37.4917 143.187 37.8446Q143.334 38.1975 143.514 38.5344Q143.694 38.8713 143.906 39.1889Q144.118 39.5065 144.361 39.8017Q144.603 40.097 144.874 40.367L164.61 60.0919Q164.745 60.2269 164.886 60.3552Q165.028 60.4834 165.176 60.6046Q165.324 60.7257 165.477 60.8395Q165.63 60.9533 165.789 61.0594Q165.948 61.1655 166.112 61.2637Q166.276 61.3619 166.444 61.4519Q166.613 61.5419 166.786 61.6236Q166.958 61.7052 167.135 61.7783Q167.311 61.8514 167.491 61.9157Q167.671 61.9801 167.854 62.0355Q168.037 62.091 168.222 62.1374Q168.407 62.1838 168.595 62.221Q168.782 62.2583 168.971 62.2863Q169.16 62.3143 169.35 62.333Q169.54 62.3518 169.731 62.3611Q169.922 62.3705 170.113 62.3705Q170.304 62.3705 170.495 62.3611Q170.686 62.3518 170.876 62.333Q171.066 62.3143 171.255 62.2863Q171.444 62.2583 171.631 62.221Q171.819 62.1838 172.004 62.1374Q172.189 62.091 172.372 62.0355Q172.555 61.9801 172.735 61.9157Q172.915 61.8514 173.091 61.7783Q173.268 61.7052 173.441 61.6236Q173.613 61.5419 173.782 61.4519Q173.95 61.3619 174.114 61.2637Q174.278 61.1655 174.437 61.0594Q174.596 60.9533 174.749 60.8395Q174.903 60.7257 175.05 60.6046Q175.198 60.4834 175.34 60.3552Q175.481 60.2269 175.616 60.0919L175.618 60.0906Q175.888 59.8205 176.13 59.5253Q176.373 59.23 176.585 58.9124Q176.797 58.5948 176.978 58.258Q177.158 57.9211 177.304 57.5682Q177.45 57.2152 177.561 56.8497Q177.672 56.4841 177.747 56.1094Q177.821 55.7348 177.859 55.3546Q177.896 54.9744 177.896 54.5924Q177.896 54.2103 177.859 53.8301Q177.821 53.45 177.747 53.0753Q177.672 52.7006 177.561 52.335Q177.45 51.9695 177.304 51.6166Q177.158 51.2636 176.978 50.9268Q176.797 50.5899 176.585 50.2723Q176.373 49.9547 176.13 49.6594Q175.888 49.3642 175.618 49.0941L155.882 29.3693Q155.746 29.2343 155.605 29.106Q155.463 28.9777 155.316 28.8566Q155.168 28.7354 155.014 28.6217Q154.861 28.5079 154.702 28.4018Q154.543 28.2957 154.379 28.1975Q154.215 28.0993 154.047 28.0093Q153.878 27.9193 153.706 27.8376Q153.533 27.7559 153.356 27.6829Q153.18 27.6098 153 27.5454Q152.82 27.4811 152.637 27.4257Q152.454 27.3702 152.269 27.3238Q152.084 27.2774 151.896 27.2402Q151.709 27.2029 151.52 27.1749Q151.331 27.1469 151.141 27.1281Q150.951 27.1094 150.76 27.1Q150.569 27.0907 150.378 27.0907Q150.187 27.0907 149.996 27.1Q149.806 27.1094 149.615 27.1281Q149.425 27.1469 149.236 27.1749Q149.047 27.2029 148.86 27.2402Q148.673 27.2774 148.487 27.3238Q148.302 27.3702 148.119 27.4257Q147.936 27.4811 147.756 27.5454Q147.576 27.6098 147.4 27.6829Q147.223 27.7559 147.051 27.8376Q146.878 27.9193 146.71 28.0093Q146.541 28.0993 146.377 28.1975Q146.213 28.2957 146.054 28.4018Q145.896 28.5079 145.742 28.6217Q145.589 28.7354 145.441 28.8566Q145.293 28.9777 145.152 29.106Q145.01 29.2343 144.875 29.3693ZM168.354 103C168.354 75.4462 190.702 53.1094 218.268 53.1094C245.835 53.1094 268.182 75.4462 268.182 103C268.182 130.554 245.835 152.891 218.268 152.891C190.702 152.891 168.354 130.554 168.354 103ZM324.001 97.3659L324.001 97.3671Q324.001 97.558 323.991 97.7487Q323.982 97.9394 323.963 98.1294Q323.945 98.3194 323.917 98.5082Q323.889 98.6971 323.851 98.8844Q323.814 99.0716 323.768 99.2568Q323.721 99.442 323.666 99.6247Q323.61 99.8074 323.546 99.9872Q323.482 100.167 323.409 100.343Q323.336 100.52 323.254 100.692Q323.172 100.865 323.082 101.033Q322.992 101.202 322.894 101.365Q322.796 101.529 322.69 101.688Q322.584 101.847 322.47 102Q322.357 102.153 322.235 102.301Q322.114 102.449 321.986 102.59Q321.858 102.731 321.723 102.866Q321.588 103.001 321.446 103.13Q321.305 103.258 321.157 103.379Q321.01 103.5 320.856 103.614Q320.703 103.728 320.544 103.834Q320.386 103.94 320.222 104.038Q320.058 104.136 319.89 104.226Q319.721 104.316 319.549 104.398Q319.376 104.479 319.2 104.552Q319.023 104.625 318.844 104.69Q318.664 104.754 318.481 104.81Q318.298 104.865 318.113 104.911Q317.928 104.958 317.741 104.995Q317.553 105.032 317.365 105.06Q317.176 105.088 316.986 105.107Q316.796 105.126 316.605 105.135Q316.414 105.144 316.223 105.144L288.304 105.144Q288.113 105.144 287.922 105.135Q287.732 105.126 287.542 105.107Q287.352 105.088 287.163 105.06Q286.974 105.032 286.787 104.995Q286.599 104.958 286.414 104.911Q286.229 104.865 286.046 104.81Q285.864 104.754 285.684 104.69Q285.504 104.625 285.328 104.552Q285.151 104.479 284.979 104.398Q284.806 104.316 284.638 104.226Q284.469 104.136 284.306 104.038Q284.142 103.94 283.983 103.834Q283.824 103.728 283.671 103.614Q283.518 103.5 283.37 103.379Q283.222 103.258 283.081 103.13Q282.94 103.001 282.805 102.866Q282.669 102.731 282.541 102.59Q282.413 102.449 282.292 102.301Q282.171 102.153 282.057 102Q281.943 101.847 281.837 101.688Q281.731 101.529 281.633 101.365Q281.535 101.202 281.445 101.033Q281.355 100.865 281.273 100.692Q281.192 100.52 281.119 100.343Q281.045 100.167 280.981 99.9872Q280.917 99.8074 280.861 99.6247Q280.806 99.442 280.76 99.2568Q280.713 99.0716 280.676 98.8843Q280.639 98.6971 280.611 98.5082Q280.583 98.3194 280.564 98.1294Q280.545 97.9394 280.536 97.7487Q280.527 97.558 280.527 97.3671L280.527 97.3659Q280.527 97.1749 280.536 96.9842Q280.545 96.7936 280.564 96.6035Q280.583 96.4135 280.611 96.2247Q280.639 96.0358 280.676 95.8486Q280.713 95.6613 280.76 95.4761Q280.806 95.2909 280.861 95.1082Q280.917 94.9255 280.981 94.7458Q281.045 94.566 281.119 94.3896Q281.192 94.2132 281.273 94.0406Q281.355 93.868 281.445 93.6996Q281.535 93.5313 281.633 93.3675Q281.731 93.2037 281.837 93.045Q281.943 92.8862 282.057 92.7329Q282.171 92.5796 282.292 92.432Q282.413 92.2844 282.541 92.1429Q282.669 92.0014 282.805 91.8665Q282.94 91.7315 283.081 91.6032Q283.222 91.475 283.37 91.3539Q283.518 91.2328 283.671 91.119Q283.824 91.0053 283.983 90.8992Q284.142 90.7932 284.306 90.695Q284.469 90.5969 284.638 90.5069Q284.806 90.4169 284.979 90.3352Q285.151 90.2536 285.328 90.1805Q285.504 90.1075 285.684 90.0432Q285.864 89.9788 286.046 89.9234Q286.229 89.868 286.414 89.8216Q286.599 89.7752 286.787 89.738Q286.974 89.7007 287.163 89.6727Q287.352 89.6447 287.542 89.626Q287.732 89.6072 287.922 89.5979Q288.113 89.5885 288.304 89.5885L316.223 89.5885Q316.414 89.5885 316.605 89.5979Q316.796 89.6073 316.986 89.626Q317.176 89.6447 317.365 89.6727Q317.553 89.7007 317.741 89.738Q317.928 89.7752 318.113 89.8216Q318.298 89.868 318.481 89.9234Q318.664 89.9788 318.844 90.0432Q319.023 90.1075 319.2 90.1805Q319.376 90.2536 319.549 90.3352Q319.721 90.4169 319.89 90.5069Q320.058 90.5969 320.222 90.695Q320.386 90.7932 320.544 90.8992Q320.703 91.0053 320.856 91.119Q321.01 91.2328 321.157 91.3539Q321.305 91.475 321.446 91.6032Q321.588 91.7315 321.723 91.8665Q321.858 92.0015 321.986 92.1429Q322.114 92.2844 322.235 92.432Q322.357 92.5796 322.47 92.7329Q322.584 92.8863 322.69 93.045Q322.796 93.2038 322.894 93.3675Q322.992 93.5313 323.082 93.6997Q323.172 93.868 323.254 94.0406Q323.336 94.2132 323.409 94.3896Q323.482 94.566 323.546 94.7458Q323.61 94.9255 323.666 95.1082Q323.721 95.2909 323.768 95.4761Q323.814 95.6613 323.851 95.8486Q323.889 96.0358 323.917 96.2247Q323.945 96.4136 323.963 96.6036Q323.982 96.7936 323.991 96.9843Q324.001 97.1749 324.001 97.3659ZM155.474 97.3671L155.474 97.3659Q155.474 97.175 155.465 96.9843Q155.456 96.7936 155.437 96.6036Q155.418 96.4136 155.39 96.2247Q155.362 96.0359 155.325 95.8486Q155.288 95.6613 155.241 95.4762Q155.195 95.2909 155.139 95.1082Q155.084 94.9255 155.02 94.7458Q154.955 94.566 154.882 94.3896Q154.809 94.2132 154.728 94.0406Q154.646 93.8681 154.556 93.6997Q154.466 93.5313 154.368 93.3675Q154.27 93.2038 154.163 93.045Q154.057 92.8863 153.944 92.7329Q153.83 92.5796 153.709 92.432Q153.588 92.2844 153.46 92.1429Q153.331 92.0015 153.196 91.8665Q153.061 91.7315 152.92 91.6033Q152.778 91.475 152.631 91.3539Q152.483 91.2328 152.33 91.1191Q152.176 91.0053 152.018 90.8993Q151.859 90.7932 151.695 90.695Q151.531 90.5969 151.363 90.5069Q151.195 90.4169 151.022 90.3353Q150.85 90.2536 150.673 90.1806Q150.497 90.1075 150.317 90.0432Q150.137 89.9789 149.955 89.9234Q149.772 89.868 149.587 89.8216Q149.401 89.7752 149.214 89.738Q149.027 89.7007 148.838 89.6727Q148.649 89.6447 148.459 89.626Q148.269 89.6073 148.079 89.5979Q147.888 89.5885 147.697 89.5885L119.777 89.5885Q119.586 89.5885 119.396 89.5979Q119.205 89.6073 119.015 89.626Q118.825 89.6447 118.636 89.6727Q118.447 89.7007 118.26 89.738Q118.073 89.7752 117.888 89.8216Q117.702 89.868 117.52 89.9234Q117.337 89.9788 117.157 90.0432Q116.977 90.1075 116.801 90.1805Q116.625 90.2536 116.452 90.3352Q116.28 90.4169 116.111 90.5069Q115.943 90.5969 115.779 90.695Q115.615 90.7932 115.456 90.8992Q115.298 91.0053 115.144 91.119Q114.991 91.2328 114.843 91.3539Q114.696 91.475 114.554 91.6032Q114.413 91.7315 114.278 91.8665Q114.143 92.0015 114.015 92.1429Q113.887 92.2844 113.765 92.432Q113.644 92.5796 113.531 92.7329Q113.417 92.8863 113.311 93.045Q113.205 93.2038 113.106 93.3675Q113.008 93.5313 112.918 93.6997Q112.828 93.868 112.747 94.0406Q112.665 94.2132 112.592 94.3896Q112.519 94.566 112.455 94.7458Q112.39 94.9255 112.335 95.1082Q112.279 95.2909 112.233 95.4761Q112.187 95.6613 112.149 95.8486Q112.112 96.0358 112.084 96.2247Q112.056 96.4136 112.037 96.6036Q112.019 96.7936 112.009 96.9843Q112 97.1749 112 97.3659L112 97.3671Q112 97.558 112.009 97.7487Q112.019 97.9394 112.037 98.1294Q112.056 98.3194 112.084 98.5083Q112.112 98.6971 112.149 98.8844Q112.187 99.0716 112.233 99.2568Q112.279 99.442 112.335 99.6247Q112.39 99.8074 112.455 99.9872Q112.519 100.167 112.592 100.343Q112.665 100.52 112.747 100.692Q112.828 100.865 112.918 101.033Q113.008 101.202 113.106 101.365Q113.205 101.529 113.311 101.688Q113.417 101.847 113.531 102Q113.644 102.153 113.765 102.301Q113.886 102.449 114.015 102.59Q114.143 102.731 114.278 102.867Q114.413 103.002 114.554 103.13Q114.696 103.258 114.843 103.379Q114.991 103.5 115.144 103.614Q115.298 103.728 115.456 103.834Q115.615 103.94 115.779 104.038Q115.943 104.136 116.111 104.226Q116.28 104.316 116.452 104.398Q116.625 104.479 116.801 104.552Q116.977 104.625 117.157 104.69Q117.337 104.754 117.52 104.81Q117.702 104.865 117.888 104.911Q118.073 104.958 118.26 104.995Q118.447 105.032 118.636 105.06Q118.825 105.088 119.015 105.107Q119.205 105.126 119.396 105.135Q119.586 105.144 119.777 105.144L147.697 105.144Q147.888 105.144 148.079 105.135Q148.269 105.126 148.459 105.107Q148.649 105.088 148.838 105.06Q149.027 105.032 149.214 104.995Q149.401 104.958 149.587 104.911Q149.772 104.865 149.955 104.81Q150.137 104.754 150.317 104.69Q150.497 104.625 150.673 104.552Q150.85 104.479 151.022 104.398Q151.195 104.316 151.363 104.226Q151.531 104.136 151.695 104.038Q151.859 103.94 152.018 103.834Q152.176 103.728 152.33 103.614Q152.483 103.5 152.631 103.379Q152.778 103.258 152.92 103.13Q153.061 103.002 153.196 102.867Q153.331 102.731 153.46 102.59Q153.588 102.449 153.709 102.301Q153.83 102.153 153.944 102Q154.057 101.847 154.163 101.688Q154.27 101.529 154.368 101.365Q154.466 101.202 154.556 101.033Q154.646 100.865 154.728 100.692Q154.809 100.52 154.882 100.343Q154.955 100.167 155.02 99.9872Q155.084 99.8074 155.139 99.6247Q155.195 99.442 155.241 99.2568Q155.288 99.0716 155.325 98.8844Q155.362 98.6971 155.39 98.5083Q155.418 98.3194 155.437 98.1294Q155.456 97.9394 155.465 97.7487Q155.474 97.558 155.474 97.3671ZM265.592 144.709L265.594 144.708Q265.729 144.573 265.87 144.445Q266.012 144.316 266.16 144.195Q266.307 144.074 266.461 143.96Q266.614 143.846 266.773 143.74Q266.932 143.634 267.096 143.536Q267.26 143.438 267.428 143.348Q267.597 143.258 267.77 143.176Q267.942 143.094 268.119 143.021Q268.295 142.948 268.475 142.884Q268.655 142.82 268.838 142.764Q269.021 142.709 269.206 142.662Q269.391 142.616 269.579 142.579Q269.766 142.541 269.955 142.513Q270.144 142.485 270.334 142.467Q270.524 142.448 270.715 142.439Q270.906 142.429 271.097 142.429Q271.288 142.429 271.479 142.439Q271.67 142.448 271.86 142.467Q272.05 142.485 272.239 142.513Q272.428 142.541 272.615 142.579Q272.803 142.616 272.988 142.662Q273.173 142.709 273.356 142.764Q273.539 142.82 273.719 142.884Q273.899 142.948 274.075 143.021Q274.252 143.094 274.424 143.176Q274.597 143.258 274.766 143.348Q274.934 143.438 275.098 143.536Q275.262 143.634 275.421 143.74Q275.58 143.846 275.733 143.96Q275.887 144.074 276.034 144.195Q276.182 144.316 276.324 144.445Q276.465 144.573 276.6 144.708L296.337 164.433Q296.607 164.703 296.849 164.998Q297.092 165.293 297.304 165.611Q297.516 165.928 297.696 166.265Q297.877 166.602 298.023 166.955Q298.169 167.308 298.28 167.674Q298.391 168.039 298.465 168.414Q298.54 168.788 298.578 169.169Q298.615 169.549 298.615 169.931Q298.615 170.313 298.577 170.693Q298.54 171.073 298.465 171.448Q298.391 171.823 298.28 172.188Q298.169 172.554 298.023 172.907Q297.877 173.26 297.696 173.596Q297.516 173.933 297.304 174.251Q297.092 174.569 296.849 174.864Q296.607 175.159 296.337 175.429L296.335 175.43Q296.2 175.565 296.059 175.694Q295.917 175.822 295.769 175.943Q295.622 176.064 295.468 176.178Q295.315 176.292 295.156 176.398Q294.997 176.504 294.833 176.602Q294.669 176.7 294.501 176.79Q294.332 176.88 294.159 176.962Q293.987 177.044 293.81 177.117Q293.634 177.19 293.454 177.254Q293.274 177.319 293.091 177.374Q292.908 177.43 292.723 177.476Q292.538 177.522 292.35 177.56Q292.163 177.597 291.974 177.625Q291.785 177.653 291.595 177.672Q291.405 177.69 291.214 177.7Q291.023 177.709 290.832 177.709Q290.641 177.709 290.45 177.7Q290.259 177.69 290.069 177.672Q289.879 177.653 289.69 177.625Q289.501 177.597 289.314 177.56Q289.126 177.522 288.941 177.476Q288.756 177.43 288.573 177.374Q288.39 177.319 288.21 177.254Q288.03 177.19 287.854 177.117Q287.677 177.044 287.505 176.962Q287.332 176.88 287.163 176.79Q286.995 176.7 286.831 176.602Q286.667 176.504 286.508 176.398Q286.349 176.292 286.196 176.178Q286.042 176.064 285.895 175.943Q285.747 175.822 285.605 175.694Q285.464 175.565 285.329 175.43L265.592 155.706Q265.322 155.435 265.08 155.14Q264.837 154.845 264.625 154.527Q264.413 154.21 264.233 153.873Q264.052 153.536 263.906 153.183Q263.76 152.83 263.649 152.465Q263.538 152.099 263.464 151.724Q263.389 151.35 263.352 150.97Q263.314 150.589 263.314 150.207Q263.314 149.825 263.352 149.445Q263.389 149.065 263.464 148.69Q263.538 148.316 263.649 147.95Q263.76 147.584 263.906 147.232Q264.052 146.879 264.233 146.542Q264.413 146.205 264.625 145.887Q264.837 145.57 265.08 145.274Q265.322 144.979 265.592 144.709ZM170.799 146.052L170.8 146.054Q171.071 146.324 171.313 146.619Q171.555 146.914 171.768 147.232Q171.98 147.549 172.16 147.886Q172.34 148.223 172.487 148.576Q172.633 148.929 172.744 149.294Q172.855 149.66 172.929 150.035Q173.004 150.409 173.041 150.79Q173.079 151.17 173.079 151.552Q173.079 151.934 173.041 152.314Q173.004 152.694 172.929 153.069Q172.855 153.443 172.744 153.809Q172.633 154.175 172.487 154.528Q172.34 154.88 172.16 155.217Q171.98 155.554 171.768 155.872Q171.555 156.189 171.313 156.485Q171.071 156.78 170.8 157.05L151.064 176.775Q150.929 176.91 150.787 177.038Q150.646 177.166 150.498 177.288Q150.35 177.409 150.197 177.522Q150.043 177.636 149.885 177.742Q149.726 177.848 149.562 177.947Q149.398 178.045 149.229 178.135Q149.061 178.225 148.888 178.307Q148.716 178.388 148.539 178.461Q148.363 178.534 148.183 178.599Q148.003 178.663 147.82 178.718Q147.637 178.774 147.452 178.82Q147.266 178.867 147.079 178.904Q146.892 178.941 146.703 178.969Q146.514 178.997 146.324 179.016Q146.134 179.035 145.943 179.044Q145.752 179.053 145.561 179.053Q145.37 179.053 145.179 179.044Q144.988 179.035 144.798 179.016Q144.608 178.997 144.419 178.969Q144.23 178.941 144.043 178.904Q143.855 178.867 143.67 178.82Q143.485 178.774 143.302 178.718Q143.119 178.663 142.939 178.599Q142.759 178.534 142.583 178.461Q142.406 178.388 142.233 178.307Q142.061 178.225 141.892 178.135Q141.724 178.045 141.56 177.947Q141.396 177.848 141.237 177.742Q141.078 177.636 140.925 177.522Q140.771 177.409 140.624 177.288Q140.476 177.166 140.334 177.038Q140.193 176.91 140.057 176.775L140.056 176.774Q139.786 176.503 139.544 176.208Q139.301 175.913 139.089 175.595Q138.877 175.278 138.696 174.941Q138.516 174.604 138.37 174.251Q138.224 173.898 138.113 173.533Q138.002 173.167 137.927 172.792Q137.853 172.418 137.815 172.038Q137.778 171.657 137.778 171.275Q137.778 170.893 137.815 170.513Q137.853 170.133 137.927 169.758Q138.002 169.384 138.113 169.018Q138.224 168.652 138.37 168.3Q138.516 167.947 138.696 167.61Q138.877 167.273 139.089 166.955Q139.301 166.638 139.544 166.342Q139.786 166.047 140.056 165.777L159.792 146.052Q159.928 145.917 160.069 145.789Q160.211 145.661 160.358 145.54Q160.506 145.418 160.66 145.305Q160.813 145.191 160.972 145.085Q161.131 144.979 161.295 144.88Q161.459 144.782 161.627 144.692Q161.796 144.602 161.968 144.521Q162.141 144.439 162.318 144.366Q162.494 144.293 162.674 144.228Q162.854 144.164 163.037 144.109Q163.219 144.053 163.405 144.007Q163.59 143.96 163.777 143.923Q163.965 143.886 164.154 143.858Q164.343 143.83 164.533 143.811Q164.723 143.792 164.914 143.783Q165.105 143.774 165.296 143.774Q165.487 143.774 165.678 143.783Q165.868 143.792 166.059 143.811Q166.249 143.83 166.438 143.858Q166.627 143.886 166.814 143.923Q167.001 143.96 167.187 144.007Q167.372 144.053 167.555 144.109Q167.738 144.164 167.918 144.228Q168.097 144.293 168.274 144.366Q168.451 144.439 168.623 144.521Q168.796 144.602 168.964 144.692Q169.133 144.782 169.297 144.88Q169.461 144.979 169.62 145.085Q169.778 145.191 169.932 145.305Q170.085 145.418 170.233 145.54Q170.381 145.661 170.522 145.789Q170.664 145.917 170.799 146.052ZM225.782 170.329C225.782 166.031 222.299 162.547 218 162.547C213.701 162.547 210.218 166.031 210.218 170.329L210.218 198.218C210.218 202.516 213.701 206 218 206C222.299 206 225.782 202.516 225.782 198.218L225.782 170.329Z" id="Oval-Union-2" fill="#FAE800" fill-rule="evenodd" stroke="none" />
    <path d="M52.4797 128.002C52.32 128.001 52.1601 128 52 128C23.2812 128 0 151.281 0 180C0 208.719 23.2812 232 52 232L170 232C200.38 232 225 207.38 225 177L225 172C225 146.437 206.554 125.182 182.246 120.82C175.388 91.6861 149.227 70 118 70C84.2563 70 56.4271 95.3231 52.4797 128.002Z" id="Oval-Union" fill="url(#gradient_1)" fill-rule="evenodd" stroke="none" filter="url(#filter_1)" />
  </g>
</svg>